<svg width="165" height="165" viewBox="0 0 165 165" fill="none" xmlns="http://www.w3.org/2000/svg">
<path d="M133.969 143.539L90.9076 100.477C87.49 103.211 83.5598 105.376 79.1169 106.97C74.6741 108.565 69.9464 109.363 64.9339 109.363C52.5167 109.363 42.0076 105.062 33.4067 96.4613C24.8057 87.8604 20.5053 77.3513 20.5053 64.934C20.5053 52.5168 24.8057 42.0077 33.4067 33.4068C42.0076 24.8058 52.5167 20.5054 64.9339 20.5054C77.3512 20.5054 87.8603 24.8058 96.4612 33.4068C105.062 42.0077 109.363 52.5168 109.363 64.934C109.363 69.9465 108.565 74.6742 106.97 79.117C105.375 83.5599 103.211 87.4901 100.477 90.9077L143.539 133.969L133.969 143.539ZM64.9339 95.6924C73.4779 95.6924 80.7403 92.702 86.7211 86.7212C92.7019 80.7404 95.6923 73.478 95.6923 64.934C95.6923 56.3901 92.7019 49.1277 86.7211 43.1469C80.7403 37.1661 73.4779 34.1757 64.9339 34.1757C56.39 34.1757 49.1276 37.1661 43.1468 43.1469C37.166 49.1277 34.1756 56.3901 34.1756 64.934C34.1756 73.478 37.166 80.7404 43.1468 86.7212C49.1276 92.702 56.39 95.6924 64.9339 95.6924Z" fill="#302E2A"/>
</svg>
