<svg width="142" height="142" viewBox="0 0 142 142" fill="none" xmlns="http://www.w3.org/2000/svg">
<path d="M11.816 112.25V100.434H129.974V112.25H11.816ZM17.7239 94.5261V88.6182C17.7239 76.0147 21.5886 64.8881 29.3181 55.2386C37.0476 45.589 46.968 39.4842 59.0792 36.9241V35.4471C59.0792 32.1978 60.2361 29.4162 62.55 27.1022C64.864 24.7883 67.6456 23.6313 70.8949 23.6313C74.1443 23.6313 76.9259 24.7883 79.2398 27.1022C81.5538 29.4162 82.7107 32.1978 82.7107 35.4471V36.9241C94.9204 39.4842 104.865 45.589 112.546 55.2386C120.226 64.8881 124.066 76.0147 124.066 88.6182V94.5261H17.7239ZM29.8351 82.7103H111.955C110.576 72.4699 105.998 64.0019 98.2189 57.3063C90.4402 50.6107 81.3322 47.2629 70.8949 47.2629C60.4577 47.2629 51.3743 50.6107 43.6448 57.3063C35.9153 64.0019 31.3121 72.4699 29.8351 82.7103Z" fill="#302E2A"/>
</svg>
