<svg width="142" height="142" viewBox="0 0 142 142" fill="none" xmlns="http://www.w3.org/2000/svg">
<path d="M11.816 129.974C11.816 119.044 13.2684 109.714 16.1731 101.985C19.0778 94.2554 22.7949 87.8306 27.3243 82.7104C31.8536 77.5902 36.9246 73.627 42.5371 70.8208C48.1496 68.0145 53.6636 66.0698 59.0792 64.9867V47.263C45.5895 45.5891 34.3399 41.429 25.3303 34.7826C16.3208 28.1362 11.816 20.4806 11.816 11.8157H129.974C129.974 20.4806 125.469 28.1362 116.46 34.7826C107.45 41.429 96.2004 45.5891 82.7108 47.263V64.9867C88.1263 66.0698 93.6404 68.0145 99.2529 70.8208C104.865 73.627 109.936 77.5902 114.466 82.7104C118.995 87.8306 122.712 94.2554 125.617 101.985C128.522 109.714 129.974 119.044 129.974 129.974H94.5265V118.158H117.42C115.647 103.191 110.059 92.3599 100.656 85.6643C91.2526 78.9687 81.3323 75.6209 70.895 75.6209C60.4577 75.6209 50.5374 78.9687 41.134 85.6643C31.7306 92.3599 26.1427 103.191 24.3703 118.158H47.2634V129.974H11.816ZM70.895 36.1857C79.8553 36.1857 87.8309 34.9795 94.8219 32.5671C101.813 30.1548 107.376 27.1762 111.512 23.6315H30.2782C34.4137 27.1762 39.977 30.1548 46.968 32.5671C53.959 34.9795 61.9347 36.1857 70.895 36.1857ZM70.895 129.974C67.6456 129.974 64.864 128.817 62.5501 126.503C60.2361 124.189 59.0792 121.407 59.0792 118.158C59.0792 116.484 59.3992 114.958 60.0392 113.579C60.6792 112.201 61.5408 110.97 62.6239 109.887C64.9871 107.524 68.9749 105.037 74.5874 102.428C80.1999 99.8187 86.8463 97.1847 94.5265 94.5262C91.7695 102.206 89.111 108.853 86.5509 114.465C83.9908 120.078 81.5292 124.066 79.166 126.429C78.0829 127.512 76.8521 128.373 75.4736 129.014C74.0951 129.654 72.5689 129.974 70.895 129.974Z" fill="#302E2A"/>
</svg>
