<svg width="165" height="165" viewBox="0 0 165 165" fill="none" xmlns="http://www.w3.org/2000/svg">
<path d="M30.2451 68.3516C31.8399 64.2505 32.0963 60.6051 31.014 57.4153C29.9318 54.2256 28.0806 51.0358 25.4604 47.8461C21.7011 43.2893 19.2233 38.9888 18.0272 34.9447C16.831 30.9005 16.6317 26.0874 17.4291 20.5054H30.7577C29.8463 24.8343 29.7039 28.3658 30.3305 31.0999C30.9571 33.834 32.5804 36.7959 35.2006 39.9856C39.5295 45.2259 42.2921 49.8682 43.4882 53.9123C44.6844 57.9565 44.7129 62.7696 43.5737 68.3516H30.2451ZM57.5858 68.3516C59.1807 64.2505 59.4655 60.6051 58.4402 57.4153C57.4149 54.2256 55.5922 51.0358 52.972 47.8461C49.2127 43.2893 46.7065 38.9888 45.4533 34.9447C44.2002 30.9005 43.9724 26.0874 44.7698 20.5054H58.0984C57.1871 24.8343 57.0447 28.3658 57.6712 31.0999C58.2978 33.834 59.9211 36.7959 62.5413 39.9856C66.8702 45.2259 69.6328 49.8682 70.829 53.9123C72.0251 57.9565 72.0536 62.7696 70.9144 68.3516H57.5858ZM84.9265 68.3516C86.5214 64.2505 86.8062 60.6051 85.7809 57.4153C84.7556 54.2256 82.9329 51.0358 80.3128 47.8461C76.5534 43.2893 74.0472 38.9888 72.7941 34.9447C71.541 30.9005 71.3131 26.0874 72.1105 20.5054H85.4391C84.5278 24.8343 84.3854 28.3658 85.0119 31.0999C85.6385 33.834 87.2619 36.7959 89.882 39.9856C94.211 45.2259 96.9735 49.8682 98.1697 53.9123C99.3658 57.9565 99.3943 62.7696 98.2551 68.3516H84.9265ZM34.1753 136.703C28.4793 136.703 23.6377 134.71 19.6505 130.723C15.6633 126.735 13.6698 121.894 13.6698 116.198V82.022H109.533C110.103 78.1487 111.641 74.7596 114.147 71.8547C116.653 68.9497 119.729 66.8707 123.374 65.6176L154.987 55.023L159.259 68.0099L127.646 78.6044C126.279 79.0601 125.169 79.886 124.314 81.0821C123.46 82.2783 123.033 83.6169 123.033 85.0978V116.198C123.033 121.894 121.039 126.735 117.052 130.723C113.065 134.71 108.223 136.703 102.527 136.703H34.1753ZM34.1753 123.033H102.527C104.464 123.033 106.087 122.378 107.397 121.068C108.707 119.758 109.362 118.135 109.362 116.198V95.6923H27.3401V116.198C27.3401 118.135 27.9952 119.758 29.3052 121.068C30.6153 122.378 32.2387 123.033 34.1753 123.033Z" fill="#302E2A"/>
</svg>
