<svg width="142" height="142" viewBox="0 0 142 142" fill="none" xmlns="http://www.w3.org/2000/svg">
<path d="M70.8949 129.974C62.7223 129.974 55.042 128.423 47.8541 125.321C40.6661 122.219 34.4136 118.01 29.0965 112.693C23.7794 107.376 19.57 101.123 16.4684 93.9354C13.3667 86.7475 11.8159 79.0672 11.8159 70.8946C11.8159 62.722 13.3667 55.0418 16.4684 47.8538C19.57 40.6659 23.7794 34.4134 29.0965 29.0963C34.4136 23.7792 40.6661 19.5698 47.8541 16.4681C55.042 13.3665 62.7223 11.8157 70.8949 11.8157C79.0674 11.8157 86.7477 13.3665 93.9356 16.4681C101.124 19.5698 107.376 23.7792 112.693 29.0963C118.01 34.4134 122.22 40.6659 125.321 47.8538C128.423 55.0418 129.974 62.722 129.974 70.8946C129.974 79.0672 128.423 86.7475 125.321 93.9354C122.22 101.123 118.01 107.376 112.693 112.693C107.376 118.01 101.124 122.219 93.9356 125.321C86.7477 128.423 79.0674 129.974 70.8949 129.974ZM70.8949 118.158L66.7593 114.022C66.1685 113.431 65.7254 112.791 65.43 112.102C65.1347 111.413 64.987 110.674 64.987 109.887V76.8025C61.7376 76.8025 58.956 75.6455 56.6421 73.3316C54.3281 71.0177 53.1712 68.2361 53.1712 64.9867V59.0788L34.709 40.6167C31.2627 44.7522 28.5549 49.38 26.5857 54.5002C24.6164 59.6204 23.6317 65.0852 23.6317 70.8946C23.6317 84.0889 28.2103 95.2647 37.3676 104.422C46.5248 113.579 57.7006 118.158 70.8949 118.158ZM76.8027 117.862C88.5201 116.385 98.3419 111.216 106.268 102.354C114.195 93.4923 118.158 83.0058 118.158 70.8946C118.158 57.7988 113.555 46.6476 104.348 37.4412C95.1418 28.2347 83.9907 23.6315 70.8949 23.6315C66.5624 23.6315 62.4023 24.1976 58.4144 25.33C54.4266 26.4623 50.7095 28.0131 47.2633 29.9824V41.3551H68.2363C70.0087 41.3551 71.7072 41.749 73.3319 42.5367C74.9565 43.3244 76.3104 44.4076 77.3935 45.7861L85.6646 56.1249H94.5264C96.2003 56.1249 97.6034 56.691 98.7358 57.8234C99.8681 58.9557 100.434 60.3589 100.434 62.0328V68.2361C100.434 69.1222 100.311 69.9592 100.065 70.7469C99.8189 71.5346 99.4497 72.3223 98.9573 73.1101L76.8027 106.342V117.862Z" fill="#302E2A"/>
</svg>
