<svg width="142" height="142" viewBox="0 0 142 142" fill="none" xmlns="http://www.w3.org/2000/svg">
<path d="M53.1708 17.7237V5.90796H88.6182V17.7237H53.1708ZM64.9866 82.7106H76.8024V47.2632H64.9866V82.7106ZM70.8945 129.974C63.6081 129.974 56.7402 128.571 50.2907 125.764C43.8413 122.958 38.2042 119.143 33.3794 114.318C28.5546 109.493 24.7391 103.856 21.9328 97.4065C19.1266 90.957 17.7235 84.0891 17.7235 76.8027C17.7235 69.5163 19.1266 62.6484 21.9328 56.1989C24.7391 49.7495 28.5546 44.1123 33.3794 39.2876C38.2042 34.4628 43.8413 30.6473 50.2907 27.841C56.7402 25.0348 63.6081 23.6316 70.8945 23.6316C76.9993 23.6316 82.858 24.6163 88.4705 26.5856C94.083 28.5549 99.3508 31.4104 104.274 35.152L112.545 26.881L120.816 35.152L112.545 43.4231C116.287 48.3463 119.142 53.6142 121.112 59.2267C123.081 64.8392 124.066 70.6979 124.066 76.8027C124.066 84.0891 122.662 90.957 119.856 97.4065C117.05 103.856 113.234 109.493 108.41 114.318C103.585 119.143 97.9477 122.958 91.4983 125.764C85.0488 128.571 78.1809 129.974 70.8945 129.974ZM70.8945 118.158C82.3164 118.158 92.0644 114.121 100.139 106.047C108.213 97.9726 112.25 88.2246 112.25 76.8027C112.25 65.3808 108.213 55.6327 100.139 47.5586C92.0644 39.4845 82.3164 35.4474 70.8945 35.4474C59.4726 35.4474 49.7245 39.4845 41.6504 47.5586C33.5763 55.6327 29.5392 65.3808 29.5392 76.8027C29.5392 88.2246 33.5763 97.9726 41.6504 106.047C49.7245 114.121 59.4726 118.158 70.8945 118.158Z" fill="#302E2A"/>
</svg>
