<svg width="165" height="165" viewBox="0 0 165 165" fill="none" xmlns="http://www.w3.org/2000/svg">
<path d="M39.9852 82.0215L37.9346 71.7687C36.5676 71.1991 35.286 70.601 34.0898 69.9745C32.8937 69.3479 31.6691 68.579 30.4159 67.6676L20.5049 70.7434L13.6697 59.1236L21.5302 52.2884C21.3024 50.8075 21.1884 49.3265 21.1884 47.8456C21.1884 46.3646 21.3024 44.8837 21.5302 43.4027L13.6697 36.5675L20.5049 24.9477L30.4159 28.0236C31.6691 27.1122 32.8937 26.3432 34.0898 25.7167C35.286 25.0901 36.5676 24.492 37.9346 23.9224L39.9852 13.6697H53.6555L55.7061 23.9224C57.0731 24.492 58.3547 25.0901 59.5509 25.7167C60.747 26.3432 61.9717 27.1122 63.2248 28.0236L73.1358 24.9477L79.971 36.5675L72.1105 43.4027C72.3384 44.8837 72.4523 46.3646 72.4523 47.8456C72.4523 49.3265 72.3384 50.8075 72.1105 52.2884L79.971 59.1236L73.1358 70.7434L63.2248 67.6676C61.9717 68.579 60.747 69.3479 59.5509 69.9745C58.3547 70.601 57.0731 71.1991 55.7061 71.7687L53.6555 82.0215H39.9852ZM46.8204 61.5159C50.5797 61.5159 53.7979 60.1774 56.4751 57.5003C59.1522 54.8232 60.4907 51.6049 60.4907 47.8456C60.4907 44.0862 59.1522 40.868 56.4751 38.1909C53.7979 35.5138 50.5797 34.1752 46.8204 34.1752C43.061 34.1752 39.8428 35.5138 37.1657 38.1909C34.4886 40.868 33.15 44.0862 33.15 47.8456C33.15 51.6049 34.4886 54.8232 37.1657 57.5003C39.8428 60.1774 43.061 61.5159 46.8204 61.5159ZM101.16 157.208L98.0842 142.855C96.1476 142.171 94.3533 141.345 92.7015 140.377C91.0497 139.409 89.4263 138.298 87.8315 137.045L74.1611 141.488L64.5918 125.083L75.5281 115.514C75.3003 113.463 75.1864 111.413 75.1864 109.362C75.1864 107.312 75.3003 105.261 75.5281 103.211L64.5918 93.6413L74.1611 77.2369L87.8315 81.6797C89.4263 80.4266 91.0497 79.3159 92.7015 78.3476C94.3533 77.3792 96.1476 76.5533 98.0842 75.8698L101.16 61.5159H120.299L123.374 75.8698C125.311 76.5533 127.105 77.3792 128.757 78.3476C130.409 79.3159 132.032 80.4266 133.627 81.6797L147.298 77.2369L156.867 93.6413L145.93 103.211C146.158 105.261 146.272 107.312 146.272 109.362C146.272 111.413 146.158 113.463 145.93 115.514L156.867 125.083L147.298 141.488L133.627 137.045C132.032 138.298 130.409 139.409 128.757 140.377C127.105 141.345 125.311 142.171 123.374 142.855L120.299 157.208H101.16ZM110.729 129.868C116.425 129.868 121.267 127.874 125.254 123.887C129.241 119.9 131.235 115.058 131.235 109.362C131.235 103.666 129.241 98.8246 125.254 94.8374C121.267 90.8503 116.425 88.8567 110.729 88.8567C105.033 88.8567 100.192 90.8503 96.2045 94.8374C92.2174 98.8246 90.2238 103.666 90.2238 109.362C90.2238 115.058 92.2174 119.9 96.2045 123.887C100.192 127.874 105.033 129.868 110.729 129.868Z" fill="#302E2A"/>
</svg>
