<svg width="165" height="165" viewBox="0 0 165 165" fill="none" xmlns="http://www.w3.org/2000/svg">
<path d="M145.588 127.817L125.083 107.312L134.652 97.7424L155.158 118.248L145.588 127.817ZM120.982 45.795L111.412 36.2258L131.918 15.7202L141.487 25.2895L120.982 45.795ZM43.0606 45.795L22.5551 25.2895L32.1243 15.7202L52.6299 36.2258L43.0606 45.795ZM18.454 127.817L8.88474 118.248L29.3903 97.7424L38.9595 107.312L18.454 127.817ZM60.4903 115.001L82.0212 102.014L103.552 115.172L97.9129 90.5655L116.881 74.161L91.9322 71.9396L82.0212 48.7L72.1101 71.7687L47.1617 73.9901L66.1294 90.5655L60.4903 115.001ZM39.8139 143.538L50.9211 95.521L13.6694 63.2247L62.8827 58.9527L82.0212 13.6697L101.16 58.9527L150.373 63.2247L113.121 95.521L124.228 143.538L82.0212 118.077L39.8139 143.538Z" fill="#302E2A"/>
</svg>
