<svg width="165" height="165" viewBox="0 0 165 165" fill="none" xmlns="http://www.w3.org/2000/svg">
<path d="M145.704 128.148L125.198 107.642L134.768 98.0727L155.273 118.578L145.704 128.148ZM121.097 46.1253L111.528 36.5561L132.033 16.0506L141.603 25.6198L121.097 46.1253ZM43.1761 46.1253L22.6706 25.6198L32.2398 16.0506L52.7454 36.5561L43.1761 46.1253ZM18.5695 128.148L9.00021 118.578L29.5057 98.0727L39.075 107.642L18.5695 128.148ZM60.6058 115.332L82.1366 102.345L103.667 115.502L98.0284 90.8958L116.996 74.4913L92.0476 72.2699L82.1366 49.0303L72.2256 72.099L47.2772 74.3205L66.2448 90.8958L60.6058 115.332ZM39.9294 143.868L51.0366 95.8513L13.7848 63.5551L62.9981 59.2831L82.1366 14L101.275 59.2831L150.488 63.5551L113.237 95.8513L124.344 143.868L82.1366 118.407L39.9294 143.868Z" fill="#BA3D3B"/>
<path d="M82.1378 37.9236L68.4675 65.2643L44.5444 72.0995L61.6323 92.605L54.7971 119.946L82.1378 106.275L109.479 123.363L102.643 92.605L119.731 75.5171L95.8082 68.6819L82.1378 37.9236Z" fill="#BA3D3B" stroke="#BA3D3B" stroke-width="6.83518"/>
</svg>
