<svg width="70" height="71" viewBox="0 0 70 71" fill="none" xmlns="http://www.w3.org/2000/svg">
<path opacity="0.6" d="M65.175 70.1125L60.3198 65.2573V65.8333H53.7365V58.674L0 4.9375L4.69063 0.246875L69.8656 65.4219L65.175 70.1125ZM60.3198 46.4948L53.4896 39.6646L43.8615 30.0365V16.4583C43.8615 11.9049 45.4661 8.02344 48.6755 4.81406C51.8849 1.60469 55.7663 0 60.3198 0V46.4948ZM37.2781 24.0292L30.6948 16.8698V0H37.2781V24.0292ZM27.4031 13.5781L20.8198 6.99479V0H27.4031V13.5781ZM17.5281 3.70313L13.825 0H17.5281V3.70313ZM20.8198 65.8333V35.7146C18.0219 34.9465 15.6766 33.4104 13.7839 31.1063C11.8911 28.8021 10.9448 26.1139 10.9448 23.0417V6.50104L17.5281 13.0844V23.0417H20.8198V16.376L27.4854 22.9594L34.8917 30.4479C34.0139 31.7097 32.9304 32.7932 31.6411 33.6984C30.3519 34.6036 28.9392 35.2757 27.4031 35.7146V65.8333H20.8198Z" fill="#302E2A"/>
</svg>
